#!OML:ASF F:\VICON\USERDATA\INSTALL\Justin_Nancy\Justin_Nancy.ASF
:FULLY-SPECIFIED
:DEGREES
158
root 0.948344 17.5699 -20.5503 4.90313 -1.41331 5.64657
lowerback 6.58267 0.702487 -5.03788
upperback 0.64951 0.550678 -0.519466
thorax -3.0642 0.334074 2.24143
lowerneck -15.0741 -4.2496 -9.99091
upperneck 20.7799 -4.85465 6.20004
head 9.44679 -2.38375 3.19357
rclavicle -1.61513e-014 -1.19271e-015
rhumerus -30.2981 -9.10271 -83.3817
rradius 34.4555
rwrist 4.78812
rhand -16.5258 11.9493
rfingers 7.12502
rthumb 9.69286 -17.8076
lclavicle -1.61513e-014 -1.19271e-015
lhumerus -27.9878 8.20234 81.7618
lradius 26.4261
lwrist -7.27666
lhand -17.0211 24.5668
lfingers 7.12502
lthumb 9.21494 54.3455
rfemur -26.6283 -3.29856 15.7006
rtibia 71.4048
rfoot -3.91075 -6.20902
rtoes 3.19163
lfemur -13.9384 0.571833 -29.3778
ltibia 24.3634
lfoot -13.4965 -2.17476
ltoes 4.07326
159
root 0.958154 17.5434 -20.4089 4.66472 -1.42535 5.84263
lowerback 6.72397 0.567152 -5.22598
upperback 0.743299 0.353036 -0.460097
thorax -3.03244 0.236088 2.42653
lowerneck -14.8215 -4.1117 -10.1729
upperneck 20.6047 -4.64417 6.2336
head 9.32548 -2.29936 3.26393
rclavicle 1.83876e-014 8.74653e-015
rhumerus -30.2355 -8.36471 -83.4956
rradius 34.9826
rwrist 4.32083
rhand -16.3565 11.5154
rfingers 7.12502
rthumb 9.85623 -18.2339
lclavicle 1.83876e-014 8.74653e-015
lhumerus -27.7188 8.39694 81.7115
lradius 27.1167
lwrist -9.56475
lhand -13.1496 25.517
lfingers 7.12502
lthumb 12.949 55.0952
rfemur -27.698 -3.43471 15.4974
rtibia 71.1793
rfoot -5.35638 -6.64665
rtoes 3.07761
lfemur -13.4928 0.379362 -29.7251
ltibia 25.0344
lfoot -14.2228 -1.55979
ltoes 3.71153
160
root 0.962688 17.5218 -20.2666 4.56958 -1.39942 5.76233
lowerback 6.81335 0.44781 -5.15516
upperback 0.77966 0.198636 -0.354111
thorax -3.0323 0.158431 2.51097
lowerneck -14.8954 -4.06342 -10.1564
upperneck 20.5896 -4.5549 6.15598
head 9.32364 -2.26353 3.24469
rclavicle 1.44119e-014 5.96354e-015
rhumerus -30.088 -7.94829 -83.5474
rradius 35.3499
rwrist 4.29963
rhand -16.2656 11.5185
rfingers 7.12502
rthumb 9.9439 -18.2266
lclavicle 1.44119e-014 5.96354e-015
lhumerus -27.5282 7.82761 81.9103
lradius 27.7959
lwrist -9.75719
lhand -12.3763 27.0568
lfingers 7.12502
lthumb 13.6944 56.5862
rfemur -28.8343 -3.52635 15.6788
rtibia 70.7053
rfoot -5.9821 -7.02429
rtoes 4.12159
lfemur -13.2227 0.228199 -29.7372
ltibia 25.6975
lfoot -14.7852 -0.993689
ltoes 4.21551
161
root 0.962641 17.4929 -20.1294 4.5657 -1.39197 5.61247
lowerback 6.91642 0.34578 -5.00813
upperback 0.767928 0.069942 -0.276479
thorax -3.0915 0.0947674 2.52097
lowerneck -15.0561 -4.07062 -10.1189
upperneck 20.6883 -4.55643 6.13311
head 9.38643 -2.26232 3.22991
rclavicle 1.93815e-014 7.15625e-015
rhumerus -30.1201 -7.51569 -83.6437
rradius 35.9409
rwrist 4.37157
rhand -16.3218 12.552
rfingers 7.12502
rthumb 9.88967 -17.1957
lclavicle 1.93815e-014 7.15625e-015
lhumerus -27.3101 6.63121 82.2691
lradius 28.2109
lwrist -7.71293
lhand -14.5627 27.1198
lfingers 7.12502
lthumb 11.5865 56.7795
rfemur -30.037 -3.52159 15.9971
rtibia 70.0755
rfoot -6.56811 -7.6498
rtoes 4.57335
lfemur -13.0872 0.118655 -29.6353
ltibia 26.3273
lfoot -15.3615 -0.50783
ltoes 4.24217
162
root 0.964033 17.4627 -19.9889 4.48134 -1.35258 5.82445
lowerback 7.02464 0.232497 -5.27897
upperback 0.756993 -0.107278 -0.24119
thorax -3.14863 0.0119255 2.72687
lowerneck -14.8715 -4.0279 -10.2008
upperneck 20.6229 -4.49272 6.12817
head 9.32579 -2.2422 3.2511
rclavicle -1.35174e-014 1.63003e-014
rhumerus -30.2713 -6.7669 -83.7371
rradius 36.6221
rwrist 4.01293
rhand -16.4098 13.781
rfingers 7.12502
rthumb 9.80477 -15.9708
lclavicle -1.35174e-014 1.63003e-014
lhumerus -27.1231 5.97745 82.4736
lradius 28.5347
lwrist -6.83543
lhand -15.2619 26.6148
lfingers 7.12502
lthumb 10.9121 56.3112
rfemur -31.0916 -3.64111 15.8584
rtibia 69.315
rfoot -7.20416 -8.0113
rtoes 3.90156
lfemur -12.8146 0.0347704 -29.9209
ltibia 26.9595
lfoot -15.9823 -0.237742
ltoes 4.33983
163
root 0.960467 17.4302 -19.8455 4.32544 -1.46891 6.06127
lowerback 7.15377 0.19757 -5.67273
upperback 0.852051 -0.187481 -0.177811
thorax -3.11379 -0.0255113 3.02212
lowerneck -15.0508 -4.04799 -10.2872
upperneck 20.6311 -4.46901 6.07885
head 9.36137 -2.24042 3.24953
rclavicle -1.2921e-014 -1.98785e-015
rhumerus -30.0315 -6.18168 -83.7834
rradius 36.9366
rwrist 3.62886
rhand -16.2063 13.2701
rfingers 7.12502
rthumb 10.0012 -16.4723
lclavicle -1.2921e-014 -1.98785e-015
lhumerus -26.6496 5.86281 82.5543
lradius 28.9501
lwrist -7.78417
lhand -13.3395 27.7217
lfingers 7.12502
lthumb 12.7659 57.3115
rfemur -32.071 -3.59864 15.6963
rtibia 68.3988
rfoot -7.51589 -8.38537
rtoes 3.96542
lfemur -12.3687 -0.0357871 -30.2262
ltibia 27.4538
lfoot -16.5689 0.102213
ltoes 4.47316
164
root 0.947418 17.4006 -19.6975 4.21122 -1.79202 5.71841
lowerback 7.24642 0.237703 -5.60845
upperback 0.965445 -0.124889 0.0207596
thorax -3.05321 0.00177013 3.18661
lowerneck -15.2904 -4.0693 -10.3066
upperneck 20.6065 -4.46712 6.07718
head 9.39764 -2.23711 3.24972
rclavicle -6.36111e-015 -5.96354e-015
rhumerus -29.843 -5.79282 -83.8496
rradius 37.35
rwrist 3.44662
rhand -16.0258 12.2246
rfingers 7.12502
rthumb 10.1753 -17.5094
lclavicle -6.36111e-015 -5.96354e-015
lhumerus -26.0092 5.69621 82.581
lradius 29.2736
lwrist -8.97656
lhand -10.9114 29.6169
lfingers 7.12502
lthumb 15.1058 59.0457
rfemur -33.0083 -3.10637 16.2641
rtibia 67.2645
rfoot -7.50713 -9.45908
rtoes 4.54536
lfemur -11.884 -0.140762 -29.8556
ltibia 27.7594
lfoot -17.0879 0.652289
ltoes 4.15606
165
root 0.955048 17.372 -19.5526 4.17449 -1.83429 5.95343
lowerback 7.25261 0.18039 -5.71477
upperback 1.05002 -0.210301 -0.0775211
thorax -2.96046 -0.0443448 3.15229
lowerneck -15.1957 -4.07965 -10.1758
upperneck 20.2733 -4.51578 6.08823
head 9.26503 -2.24629 3.22192
rclavicle 8.54774e-015 7.55382e-015
rhumerus -29.6653 -5.76721 -83.9398
rradius 37.6413
rwrist 3.64596
rhand -16.0771 12.1531
rfingers 7.12502
rthumb 10.1258 -17.5833
lclavicle 8.54774e-015 7.55382e-015
lhumerus -25.5002 5.17273 82.554
lradius 29.6249
lwrist -9.81159
lhand -9.6904 30.605
lfingers 7.12502
lthumb 16.2818 59.9414
rfemur -33.9125 -3.17446 16.0534
rtibia 65.9428
rfoot -7.62735 -10.2151
rtoes 3.72812
lfemur -11.3882 -0.479974 -30.1961
ltibia 27.9873
lfoot -17.5093 1.14192
ltoes 4.16695
166
root 0.963811 17.3483 -19.4076 4.09693 -1.75752 6.34762
lowerback 7.35408 0.0988446 -5.94042
upperback 1.03126 -0.34829 -0.205253
thorax -3.02281 -0.108832 3.16033
lowerneck -14.8158 -4.07746 -10.0722
upperneck 19.934 -4.56894 6.09815
head 9.07958 -2.26498 3.20079
rclavicle -1.93815e-014 -1.94809e-014
rhumerus -29.5509 -5.65412 -83.9697
rradius 37.7088
rwrist 3.54071
rhand -16.3709 12.5291
rfingers 7.12502
rthumb 9.84232 -17.2208
lclavicle -1.93815e-014 -1.94809e-014
lhumerus -25.2968 4.69098 82.522
lradius 29.8556
lwrist -10.6439
lhand -9.43759 29.6514
lfingers 7.12502
lthumb 16.5252 58.9677
rfemur -34.6383 -3.42384 15.6225
rtibia 64.4091
rfoot -7.94568 -10.1919
rtoes 2.53402
lfemur -10.7073 -0.731902 -30.7232
ltibia 28.0108
lfoot -17.8548 1.46184
ltoes 4.25757
